<?xml version="1.0" encoding="utf-8"?>
<svg version="1.0" xmlns="http://www.w3.org/2000/svg" width="1024px" height="1024px" viewBox="0 0 1024 1024" preserveAspectRatio="xMidYMid meet">
  <title>universal-doh</title>
  <g fill="#f9feff">
  <path d="M0 512 c0 -512 0 -512 512 -512 512 0 512 0 512 512 0 512 0 512 -512 512 -512 0 -512 0 -512 -512z"/>
 </g>
 <g fill="#e6f5fd">
  <path d="M250.75 899.20 c-25.25 -1.55 -39.45 -4.50 -56 -11.55 -8.60 -3.65 -21.35 -11.65 -27.05 -17 -1.10 -1.05 -3.90 -3.60 -6.20 -5.65 -2.30 -2.05 -5.65 -5.55 -7.45 -7.75 -3.45 -4.15 -8.05 -10.45 -8.05 -11 0 -0.20 -0.65 -1.25 -1.45 -2.40 -4.95 -7.25 -10.15 -19.75 -13.25 -31.85 -2.95 -11.60 -4.15 -20.45 -4.85 -36.90 -0.55 -13.50 -0.45 -528.85 0.15 -531.10 0.15 -0.70 0.45 -2.50 0.65 -4 0.15 -1.50 0.40 -3.40 0.50 -4.25 0.15 -0.80 0.70 -4.75 1.20 -8.75 0.55 -4 1.60 -9.15 2.30 -11.50 0.70 -2.35 1.40 -5.05 1.55 -6 0.15 -0.95 0.50 -2.15 0.75 -2.60 0.25 -0.50 0.40 -0.90 0.25 -0.90 -0.35 0 2.40 -7.90 4.05 -11.50 0.85 -1.80 2 -4.35 2.65 -5.75 0.95 -2.05 6.65 -11.70 9.50 -15.95 0.40 -0.65 2.85 -3.65 5.40 -6.70 4.45 -5.30 9.75 -10.30 17.65 -16.65 7.90 -6.30 22.60 -13.90 33.70 -17.30 10.80 -3.30 11.25 -3.40 23.25 -5.40 14.05 -2.35 4.30 -2.25 280.85 -2.25 142.65 0.05 262.35 0.25 265.90 0.50 14.40 0.95 25.55 2.90 39.25 6.85 7.95 2.30 21.65 8.65 28.60 13.30 9.05 6.05 21.30 17.20 27 24.65 6.30 8.20 12.40 19.55 16.35 30.35 5.55 15.15 7.95 27.85 9.05 48.10 0.85 15.70 0.45 533.20 -0.45 540.25 -2.05 16.60 -5.40 30.40 -9.90 40.85 -4.55 10.75 -10.85 20.85 -18.05 28.90 -11.40 12.85 -22.40 21.20 -37.15 28.20 -13.55 6.45 -26.30 9.75 -45.45 11.90 -7.20 0.80 -25.55 0.85 -270.25 0.90 -144.35 0.05 -263.60 0 -265 -0.05z m265.30 -81.55 c19.75 -15.10 42.40 -34.05 42.05 -35.25 -0.05 -0.25 0.05 -0.35 0.30 -0.20 0.55 0.35 20.35 -18.40 25.85 -24.50 2.20 -2.40 3.95 -4.65 3.95 -5 -0.05 -0.35 0.20 -0.55 0.50 -0.45 0.30 0.10 2.50 -2.10 4.90 -4.90 4.40 -5.10 5.35 -6.35 9.75 -12.35 1.30 -1.80 2.70 -3.60 3.10 -4 1.30 -1.35 6.15 -9.10 8.85 -14.25 3.20 -6.10 5.35 -12.15 7.10 -19.75 1.30 -5.75 1.30 -5.75 1.50 -37.85 0.15 -32.10 0.15 -32.10 -112.40 -32.05 -112.50 0.05 -112.50 0.05 -112.80 1.15 -0.15 0.65 -0.20 14.60 -0.05 31.05 0.25 32.15 0.30 32.55 3.10 42.95 2.80 10.30 7.75 19.30 18.60 33.90 9.25 12.35 22.10 25.95 42.95 45.35 8.10 7.55 29.65 25.60 34.70 29.10 0.70 0.50 3.85 2.90 7 5.35 3.15 2.45 6.10 4.50 6.55 4.50 0.40 0.05 2.45 -1.25 4.50 -2.80z"/>
  <path d="M495.35 721.15 c-0.15 -0.25 0.20 -3.45 0.75 -7.15 0.50 -3.70 1.35 -10 1.90 -14 0.50 -4 1.30 -10 1.75 -13.35 0.85 -6.15 0.85 -6.15 -1.95 -8.70 -3.45 -3.15 -5 -5.75 -5.75 -9.70 -0.90 -4.90 0.20 -9.85 3.15 -14.25 4.35 -6.55 11.75 -9.80 19.20 -8.50 15.85 2.75 22 21.55 10.50 32.30 -1.35 1.25 -2.40 2.70 -2.40 3.30 0 1.35 2.45 21.40 2.75 22.40 0.20 0.65 2.25 16.90 2.25 17.70 0 0.45 -31.90 0.35 -32.15 -0.05z"/>
 </g>
 <g fill="#4d98d5">
  <path d="M493.40 865.45 c-29.60 -21.90 -48.50 -37.40 -54.90 -45.10 -1.50 -1.80 -3.30 -3.50 -4 -3.75 -0.70 -0.25 -5.85 -1.75 -11.50 -3.35 -24 -6.70 -46.20 -16 -69.50 -28.95 -14.35 -8.05 -33.85 -21.35 -46 -31.50 -8.30 -6.90 -23.95 -21.85 -31.50 -30.05 -15.60 -16.95 -22.85 -26.50 -37.95 -50 -6.20 -9.65 -16.45 -30.15 -21.80 -43.75 -8.30 -20.90 -15.15 -45.90 -18.25 -66.70 -0.55 -3.55 -1.05 -6.50 -1.15 -6.60 -0.10 -0.10 -2.10 -0.45 -4.40 -0.70 -11.60 -1.45 -21.50 -6.20 -30.20 -14.60 -6.80 -6.50 -10.95 -13.55 -13.60 -23.25 -1.20 -4.35 -1.35 -5.75 -1.35 -12.40 0 -6.05 0.20 -8.35 1.10 -11.90 2.55 -10.20 6.40 -17.20 13.35 -24.15 9.20 -9.30 19.75 -14.45 31.65 -15.45 3.65 -0.35 4.15 -0.50 4.35 -1.45 0.10 -0.55 0.80 -4.20 1.50 -8.05 3 -16.10 8.90 -36.20 16.50 -56.40 1 -2.65 1.75 -5.05 1.65 -5.30 -0.10 -0.20 -1.55 -1.55 -3.20 -2.95 -3.85 -3.15 -9.10 -9.70 -11.45 -14.20 -9.35 -17.80 -7.15 -40.60 5.40 -56.15 7.95 -9.90 17.70 -15.70 30.20 -18.05 3.30 -0.60 6.05 -0.75 11.15 -0.55 7.60 0.30 11.80 1.25 18.20 4.25 3.90 1.80 3.90 1.80 6.70 -1.40 4.65 -5.50 22 -22.45 29.10 -28.50 12.65 -10.80 12.50 -10.65 26.20 -20.50 9 -6.45 35.95 -22.60 38.80 -23.20 1.20 -0.30 1.70 0.60 14.25 25.80 7.15 14.35 13.15 26.50 13.35 27 0.30 0.70 -0.40 1.25 -3.50 2.95 -6.10 3.35 -20.75 12.70 -27.35 17.35 -17.80 12.65 -36.10 29.40 -49.80 45.60 -9.15 10.90 -15.95 20.40 -23.60 33.10 -19.85 33 -31.95 69.20 -36.20 108.55 -1.25 11.25 -1.25 39.90 0 52.35 5.45 54.80 25.70 102.45 60.75 143 5.95 6.90 20.25 21.20 27.30 27.25 6.60 5.70 14.05 11.75 14.55 11.75 0.10 0 0 -0.60 -0.25 -1.35 -1.40 -4.15 -3.60 -18.95 -4.45 -29.80 -0.45 -5.55 -0.90 -99.75 -0.45 -100.10 0.10 -0.05 1.15 -0.75 2.40 -1.50 1.25 -0.75 2.35 -1.50 2.50 -1.60 0.15 -0.15 0.35 -23.45 0.55 -51.80 0.30 -58.45 0.15 -55.95 4.65 -73.90 5.45 -21.65 15.45 -41.60 30 -59.70 7.50 -9.35 20.85 -21.60 32.05 -29.35 4.70 -3.30 15.35 -9.40 21 -12.10 22 -10.55 48.45 -15.70 73 -14.30 28.25 1.65 53.15 9.80 75.75 24.75 13.55 8.95 25.90 20.25 36.20 33.10 15.75 19.65 26.30 43.10 30.50 67.65 2.05 12.20 2.25 17.10 2.35 64 0 24.90 0.15 46.65 0.30 48.35 0.25 3.15 0.25 3.15 3.25 4.95 2.95 1.80 2.95 1.80 2.75 50.65 -0.15 41.85 -0.30 49.85 -1 56.05 -0.95 7.75 -3.60 23.25 -4.35 25.30 -0.25 0.65 -0.35 1.20 -0.20 1.20 0.15 0 1.65 -1.05 3.35 -2.35 14.65 -11.30 34 -30.30 45.85 -45.05 7.50 -9.35 7.50 -9.35 7.50 -13.15 0 -8.55 4.35 -18.90 10.80 -25.85 3.40 -3.70 8.45 -7.50 11 -8.30 1.80 -0.55 8.75 -17.20 13.35 -31.80 8.45 -26.95 12.45 -53.35 12.50 -82.25 0.05 -23.80 -2.35 -43.35 -8.15 -66.30 -6.30 -24.95 -14.45 -44.55 -27.70 -66.45 -8.20 -13.55 -14.30 -22.05 -24.45 -34.20 -11.30 -13.55 -30 -31.20 -44.85 -42.30 -2.35 -1.70 -4.85 -3.75 -5.65 -4.45 -1.30 -1.20 -1.70 -1.25 -6.75 -1.30 -6 -0.10 -12.25 -1.45 -17.40 -3.75 -6.95 -3.10 -14.35 -9.30 -17.75 -14.80 -3.85 -6.25 -3.15 -5.75 -9.70 -7.80 -26.20 -8.40 -41.85 -12.30 -64.45 -16.15 -9.90 -1.70 -9.90 -1.70 -13.75 -0.40 -14.60 4.90 -30.55 2.85 -43.45 -5.65 -7.95 -5.25 -14.95 -13.35 -18.75 -21.70 -2.85 -6.30 -3.95 -11.90 -4 -20.25 -0.05 -8.05 0.50 -11.80 2.50 -17.75 2.60 -7.60 6.10 -13.35 11.85 -19.40 6.20 -6.50 13.70 -11 22.65 -13.45 4.40 -1.25 5.70 -1.40 12.90 -1.35 7.20 0 8.50 0.10 13 1.40 16.45 4.60 29.10 16.50 34.55 32.50 0.65 1.90 1.20 3.95 1.20 4.50 0 1.95 0.85 2.40 6.20 3.30 13.70 2.40 42.60 10.05 54.10 14.35 0.30 0.10 1.20 -0.90 2.05 -2.20 9.50 -15.15 28.95 -23.85 46.90 -20.95 10.70 1.75 19.60 6 26.75 12.65 4.85 4.55 7.30 7.75 10.15 13.15 6.45 12.20 7.50 26.70 3 40.60 -1 3 -1.70 5.50 -1.60 5.55 0.10 0.10 2.25 1.80 4.70 3.85 21.95 18.15 44.80 41.95 57 59.50 16.85 24.10 29.80 48.15 38.65 71.50 7.05 18.60 10.95 32.25 15.10 52.25 1.15 5.50 2.15 10.05 2.20 10.15 0.10 0.05 2.15 0.35 4.60 0.65 12.30 1.45 22.05 5.75 30.20 13.35 16.75 15.55 21.20 40.65 10.85 61.35 -5.20 10.45 -16.60 20.30 -28.20 24.40 -3.90 1.40 -10.75 2.85 -13.60 2.85 -1 0 -2.10 0.20 -2.40 0.40 -0.40 0.25 -1.30 4.30 -2.20 9.40 -4.50 26.40 -9.75 45 -19.40 68.65 -1.50 3.70 -1.50 3.70 1.55 7.75 8.65 11.45 11.75 26.60 8.40 41.15 -2.20 9.50 -6.05 16.55 -12.85 23.65 -7.05 7.40 -16.45 12.70 -26.30 14.75 -6.40 1.40 -18.55 0.70 -23.40 -1.25 -1.20 -0.50 -1.75 -0.05 -11.75 10.05 -20.75 20.95 -40 36.50 -61.20 49.30 -26.20 15.90 -61.15 30.80 -86.65 36.90 -5.35 1.30 -5.35 1.30 -12.50 8.45 -6.65 6.70 -11.65 11.05 -23.60 20.60 -7.95 6.40 -22.05 17.20 -27.25 20.80 -2.60 1.85 -7.90 5.60 -11.75 8.40 -3.85 2.75 -7.15 5 -7.35 5 -0.20 0 -8.30 -5.90 -18 -13.05z m22.55 -47.35 c17.10 -13.10 16.80 -12.85 30.30 -24.35 35 -29.90 58.95 -56.55 69.60 -77.50 3.50 -6.90 5.60 -13.15 7.20 -21.25 1.05 -5.55 1.10 -6.80 1.15 -36.75 0.05 -31 0.05 -31 -112.85 -31 -112.90 0 -112.90 0 -112.85 30.50 0 27.95 0.10 30.95 1 35.85 2.35 13.10 5.25 20.15 13 31.90 8.15 12.30 15.30 21.10 28 34.25 7.20 7.50 22.60 22.35 27.05 26.05 1.25 1.10 5.30 4.55 9 7.70 12.15 10.50 33.90 27.50 35.15 27.50 0.25 0 2.15 -1.30 4.25 -2.90z m84.05 -284.95 c0 -49.50 -0.10 -51.60 -2.25 -61 -3.75 -16.35 -12.30 -31.40 -24.65 -43.25 -13.70 -13.10 -27.50 -20.40 -45.25 -24 -4.80 -1 -7.15 -1.15 -16.60 -1.15 -10.30 0 -11.45 0.10 -17.50 1.45 -17.60 3.85 -31.95 11.60 -44.25 23.80 -14.65 14.50 -22.25 28.80 -26.05 49 -1.10 5.60 -1.10 7.10 -1.30 51 -0.15 24.90 -0.10 46.65 0.10 48.40 0.35 3.10 0.35 3.10 89.05 3.10 88.70 0 88.70 0 88.70 -47.35z"/>
  <path d="M495.65 719.15 c0.20 -1.05 1.35 -9.55 2.55 -18.90 1.25 -9.35 2.35 -17.65 2.45 -18.50 0.20 -1.30 -0.15 -1.85 -2.70 -4.15 -1.80 -1.65 -3.40 -3.70 -4.30 -5.50 -1.20 -2.50 -1.40 -3.40 -1.40 -7.35 0 -3.85 0.20 -4.95 1.40 -7.45 3.70 -8 10.55 -12.25 18.95 -11.65 7.35 0.50 13 4.30 16.05 10.75 1.45 3.05 1.60 3.80 1.60 8.10 0 5.90 -0.95 8.25 -5.20 12.65 -2.95 3.10 -2.95 3.10 -2.30 9.35 0.80 7.30 2.20 17.90 2.50 19 0.10 0.40 0.55 3.70 1 7.25 0.45 3.60 0.90 6.90 1.05 7.40 0.25 0.80 -0.75 0.85 -15.85 0.85 -16.10 0 -16.10 0 -15.80 -1.85z"/>
 </g>
</svg>
