<?xml version="1.0" encoding="utf-8"?>
<svg version="1.0" width="1024px" height="1024px" viewBox="0 0 1024 1024" preserveAspectRatio="xMidYMid meet" xmlns="http://www.w3.org/2000/svg">
  <title>universal-doh</title>
  <g fill="#f9feff" id="g1">
    <path d="m 48.297134,512.87598 c 0,-464.166382 0,-464.166382 464.061076,-464.166382 464.0611,0 464.0611,0 464.0611,464.166382 0,464.16636 0,464.16636 -464.0611,464.16636 -464.061076,0 -464.061076,0 -464.061076,-464.16636 z" style="stroke-width:0.906472" />
  </g>
  <g fill="#e6f5fd" transform="matrix(1.3255289,0,0,1.3226603,-165.20062,-164.32612)">
    <path d="m 250.75,899.2 c -25.25,-1.55 -39.45,-4.5 -56,-11.55 -8.6,-3.65 -21.35,-11.65 -27.05,-17 -1.1,-1.05 -3.9,-3.6 -6.2,-5.65 -2.3,-2.05 -5.65,-5.55 -7.45,-7.75 -3.45,-4.15 -8.05,-10.45 -8.05,-11 0,-0.2 -0.65,-1.25 -1.45,-2.4 C 139.6,836.6 134.4,824.1 131.3,812 128.35,800.4 127.15,791.55 126.45,775.1 125.9,761.6 126,246.25 126.6,244 c 0.15,-0.7 0.45,-2.5 0.65,-4 0.15,-1.5 0.4,-3.4 0.5,-4.25 0.15,-0.8 0.7,-4.75 1.2,-8.75 0.55,-4 1.6,-9.15 2.3,-11.5 0.7,-2.35 1.4,-5.05 1.55,-6 0.15,-0.95 0.5,-2.15 0.75,-2.6 0.25,-0.5 0.4,-0.9 0.25,-0.9 -0.35,0 2.4,-7.9 4.05,-11.5 0.85,-1.8 2,-4.35 2.65,-5.75 0.95,-2.05 6.65,-11.7 9.5,-15.95 0.4,-0.65 2.85,-3.65 5.4,-6.7 4.45,-5.3 9.75,-10.3 17.65,-16.65 7.9,-6.3 22.6,-13.9 33.7,-17.3 10.8,-3.3 11.25,-3.4 23.25,-5.4 14.05,-2.35 4.3,-2.25 280.85,-2.25 142.65,0.05 262.35,0.25 265.9,0.5 14.4,0.95 25.55,2.9 39.25,6.85 7.95,2.3 21.65,8.65 28.6,13.3 9.05,6.05 21.3,17.2 27,24.65 6.3,8.2 12.4,19.55 16.35,30.35 5.55,15.15 7.95,27.85 9.05,48.1 0.85,15.7 0.45,533.2 -0.45,540.25 -2.05,16.6 -5.4,30.4 -9.9,40.85 -4.55,10.75 -10.85,20.85 -18.05,28.9 -11.4,12.85 -22.4,21.2 -37.15,28.2 -13.55,6.45 -26.3,9.75 -45.45,11.9 -7.2,0.8 -25.55,0.85 -270.25,0.9 -144.35,0.05 -263.6,0 -265,-0.05 z m 265.3,-81.55 c 19.75,-15.1 42.4,-34.05 42.05,-35.25 -0.05,-0.25 0.05,-0.35 0.3,-0.2 0.55,0.35 20.35,-18.4 25.85,-24.5 2.2,-2.4 3.95,-4.65 3.95,-5 -0.05,-0.35 0.2,-0.55 0.5,-0.45 0.3,0.1 2.5,-2.1 4.9,-4.9 4.4,-5.1 5.35,-6.35 9.75,-12.35 1.3,-1.8 2.7,-3.6 3.1,-4 1.3,-1.35 6.15,-9.1 8.85,-14.25 3.2,-6.1 5.35,-12.15 7.1,-19.75 1.3,-5.75 1.3,-5.75 1.5,-37.85 0.15,-32.1 0.15,-32.1 -112.4,-32.05 -112.5,0.05 -112.5,0.05 -112.8,1.15 -0.15,0.65 -0.2,14.6 -0.05,31.05 0.25,32.15 0.3,32.55 3.1,42.95 2.8,10.3 7.75,19.3 18.6,33.9 9.25,12.35 22.1,25.95 42.95,45.35 8.1,7.55 29.65,25.6 34.7,29.1 0.7,0.5 3.85,2.9 7,5.35 3.15,2.45 6.1,4.5 6.55,4.5 0.4,0.05 2.45,-1.25 4.5,-2.8 z" />
    <path d="m 495.35,721.15 c -0.15,-0.25 0.2,-3.45 0.75,-7.15 0.5,-3.7 1.35,-10 1.9,-14 0.5,-4 1.3,-10 1.75,-13.35 0.85,-6.15 0.85,-6.15 -1.95,-8.7 -3.45,-3.15 -5,-5.75 -5.75,-9.7 -0.9,-4.9 0.2,-9.85 3.15,-14.25 4.35,-6.55 11.75,-9.8 19.2,-8.5 15.85,2.75 22,21.55 10.5,32.3 -1.35,1.25 -2.4,2.7 -2.4,3.3 0,1.35 2.45,21.4 2.75,22.4 0.2,0.65 2.25,16.9 2.25,17.7 0,0.45 -31.9,0.35 -32.15,-0.05 z" />
  </g>
  <g fill="#4d98d5" transform="matrix(1.3255289,0,0,1.3226603,-165.20062,-164.32612)">
    <path d="m 493.4,865.45 c -29.6,-21.9 -48.5,-37.4 -54.9,-45.1 -1.5,-1.8 -3.3,-3.5 -4,-3.75 -0.7,-0.25 -5.85,-1.75 -11.5,-3.35 -24,-6.7 -46.2,-16 -69.5,-28.95 -14.35,-8.05 -33.85,-21.35 -46,-31.5 -8.3,-6.9 -23.95,-21.85 -31.5,-30.05 -15.6,-16.95 -22.85,-26.5 -37.95,-50 -6.2,-9.65 -16.45,-30.15 -21.8,-43.75 -8.3,-20.9 -15.15,-45.9 -18.25,-66.7 -0.55,-3.55 -1.05,-6.5 -1.15,-6.6 -0.1,-0.1 -2.1,-0.45 -4.4,-0.7 -11.6,-1.45 -21.5,-6.2 -30.2,-14.6 -6.8,-6.5 -10.95,-13.55 -13.6,-23.25 -1.2,-4.35 -1.35,-5.75 -1.35,-12.4 0,-6.05 0.2,-8.35 1.1,-11.9 2.55,-10.2 6.4,-17.2 13.35,-24.15 9.2,-9.3 19.75,-14.45 31.65,-15.45 3.65,-0.35 4.15,-0.5 4.35,-1.45 0.1,-0.55 0.8,-4.2 1.5,-8.05 3,-16.1 8.9,-36.2 16.5,-56.4 1,-2.65 1.75,-5.05 1.65,-5.3 -0.1,-0.2 -1.55,-1.55 -3.2,-2.95 -3.85,-3.15 -9.1,-9.7 -11.45,-14.2 -9.35,-17.8 -7.15,-40.6 5.4,-56.15 7.95,-9.9 17.7,-15.7 30.2,-18.05 3.3,-0.6 6.05,-0.75 11.15,-0.55 7.6,0.3 11.8,1.25 18.2,4.25 3.9,1.8 3.9,1.8 6.7,-1.4 4.65,-5.5 22,-22.45 29.1,-28.5 12.65,-10.8 12.5,-10.65 26.2,-20.5 9,-6.45 35.95,-22.6 38.8,-23.2 1.2,-0.3 1.7,0.6 14.25,25.8 7.15,14.35 13.15,26.5 13.35,27 0.3,0.7 -0.4,1.25 -3.5,2.95 -6.1,3.35 -20.75,12.7 -27.35,17.35 -17.8,12.65 -36.1,29.4 -49.8,45.6 -9.15,10.9 -15.95,20.4 -23.6,33.1 -19.85,33 -31.95,69.2 -36.2,108.55 -1.25,11.25 -1.25,39.9 0,52.35 5.45,54.8 25.7,102.45 60.75,143 5.95,6.9 20.25,21.2 27.3,27.25 6.6,5.7 14.05,11.75 14.55,11.75 0.1,0 0,-0.6 -0.25,-1.35 -1.4,-4.15 -3.6,-18.95 -4.45,-29.8 -0.45,-5.55 -0.9,-99.75 -0.45,-100.1 0.1,-0.05 1.15,-0.75 2.4,-1.5 1.25,-0.75 2.35,-1.5 2.5,-1.6 0.15,-0.15 0.35,-23.45 0.55,-51.8 0.3,-58.45 0.15,-55.95 4.65,-73.9 5.45,-21.65 15.45,-41.6 30,-59.7 7.5,-9.35 20.85,-21.6 32.05,-29.35 4.7,-3.3 15.35,-9.4 21,-12.1 22,-10.55 48.45,-15.7 73,-14.3 28.25,1.65 53.15,9.8 75.75,24.75 13.55,8.95 25.9,20.25 36.2,33.1 15.75,19.65 26.3,43.1 30.5,67.65 2.05,12.2 2.25,17.1 2.35,64 0,24.9 0.15,46.65 0.3,48.35 0.25,3.15 0.25,3.15 3.25,4.95 2.95,1.8 2.95,1.8 2.75,50.65 -0.15,41.85 -0.3,49.85 -1,56.05 -0.95,7.75 -3.6,23.25 -4.35,25.3 -0.25,0.65 -0.35,1.2 -0.2,1.2 0.15,0 1.65,-1.05 3.35,-2.35 14.65,-11.3 34,-30.3 45.85,-45.05 7.5,-9.35 7.5,-9.35 7.5,-13.15 0,-8.55 4.35,-18.9 10.8,-25.85 3.4,-3.7 8.45,-7.5 11,-8.3 1.8,-0.55 8.75,-17.2 13.35,-31.8 8.45,-26.95 12.45,-53.35 12.5,-82.25 C 769.2,483.45 766.8,463.9 761,440.95 754.7,416 746.55,396.4 733.3,374.5 725.1,360.95 719,352.45 708.85,340.3 697.55,326.75 678.85,309.1 664,298 c -2.35,-1.7 -4.85,-3.75 -5.65,-4.45 -1.3,-1.2 -1.7,-1.25 -6.75,-1.3 -6,-0.1 -12.25,-1.45 -17.4,-3.75 -6.95,-3.1 -14.35,-9.3 -17.75,-14.8 -3.85,-6.25 -3.15,-5.75 -9.7,-7.8 -26.2,-8.4 -41.85,-12.3 -64.45,-16.15 -9.9,-1.7 -9.9,-1.7 -13.75,-0.4 -14.6,4.9 -30.55,2.85 -43.45,-5.65 -7.95,-5.25 -14.95,-13.35 -18.75,-21.7 -2.85,-6.3 -3.95,-11.9 -4,-20.25 -0.05,-8.05 0.5,-11.8 2.5,-17.75 2.6,-7.6 6.1,-13.35 11.85,-19.4 6.2,-6.5 13.7,-11 22.65,-13.45 4.4,-1.25 5.7,-1.4 12.9,-1.35 7.2,0 8.5,0.1 13,1.4 16.45,4.6 29.1,16.5 34.55,32.5 0.65,1.9 1.2,3.95 1.2,4.5 0,1.95 0.85,2.4 6.2,3.3 13.7,2.4 42.6,10.05 54.1,14.35 0.3,0.1 1.2,-0.9 2.05,-2.2 9.5,-15.15 28.95,-23.85 46.9,-20.95 10.7,1.75 19.6,6 26.75,12.65 4.85,4.55 7.3,7.75 10.15,13.15 6.45,12.2 7.5,26.7 3,40.6 -1,3 -1.7,5.5 -1.6,5.55 0.1,0.1 2.25,1.8 4.7,3.85 21.95,18.15 44.8,41.95 57,59.5 16.85,24.1 29.8,48.15 38.65,71.5 7.05,18.6 10.95,32.25 15.1,52.25 1.15,5.5 2.15,10.05 2.2,10.15 0.1,0.05 2.15,0.35 4.6,0.65 12.3,1.45 22.05,5.75 30.2,13.35 16.75,15.55 21.2,40.65 10.85,61.35 -5.2,10.45 -16.6,20.3 -28.2,24.4 -3.9,1.4 -10.75,2.85 -13.6,2.85 -1,0 -2.1,0.2 -2.4,0.4 -0.4,0.25 -1.3,4.3 -2.2,9.4 -4.5,26.4 -9.75,45 -19.4,68.65 -1.5,3.7 -1.5,3.7 1.55,7.75 8.65,11.45 11.75,26.6 8.4,41.15 -2.2,9.5 -6.05,16.55 -12.85,23.65 -7.05,7.4 -16.45,12.7 -26.3,14.75 -6.4,1.4 -18.55,0.7 -23.4,-1.25 -1.2,-0.5 -1.75,-0.05 -11.75,10.05 -20.75,20.95 -40,36.5 -61.2,49.3 -26.2,15.9 -61.15,30.8 -86.65,36.9 -5.35,1.3 -5.35,1.3 -12.5,8.45 -6.65,6.7 -11.65,11.05 -23.6,20.6 -7.95,6.4 -22.05,17.2 -27.25,20.8 -2.6,1.85 -7.9,5.6 -11.75,8.4 -3.85,2.75 -7.15,5 -7.35,5 -0.2,0 -8.3,-5.9 -18,-13.05 z m 22.55,-47.35 c 17.1,-13.1 16.8,-12.85 30.3,-24.35 35,-29.9 58.95,-56.55 69.6,-77.5 3.5,-6.9 5.6,-13.15 7.2,-21.25 1.05,-5.55 1.1,-6.8 1.15,-36.75 0.05,-31 0.05,-31 -112.85,-31 -112.9,0 -112.9,0 -112.85,30.5 0,27.95 0.1,30.95 1,35.85 2.35,13.1 5.25,20.15 13,31.9 8.15,12.3 15.3,21.1 28,34.25 7.2,7.5 22.6,22.35 27.05,26.05 1.25,1.1 5.3,4.55 9,7.7 12.15,10.5 33.9,27.5 35.15,27.5 0.25,0 2.15,-1.3 4.25,-2.9 z M 600,533.15 c 0,-49.5 -0.1,-51.6 -2.25,-61 -3.75,-16.35 -12.3,-31.4 -24.65,-43.25 -13.7,-13.1 -27.5,-20.4 -45.25,-24 -4.8,-1 -7.15,-1.15 -16.6,-1.15 -10.3,0 -11.45,0.1 -17.5,1.45 -17.6,3.85 -31.95,11.6 -44.25,23.8 -14.65,14.5 -22.25,28.8 -26.05,49 -1.1,5.6 -1.1,7.1 -1.3,51 -0.15,24.9 -0.1,46.65 0.1,48.4 0.35,3.1 0.35,3.1 89.05,3.1 88.7,0 88.7,0 88.7,-47.35 z" />
    <path d="m 495.65,719.15 c 0.2,-1.05 1.35,-9.55 2.55,-18.9 1.25,-9.35 2.35,-17.65 2.45,-18.5 0.2,-1.3 -0.15,-1.85 -2.7,-4.15 -1.8,-1.65 -3.4,-3.7 -4.3,-5.5 -1.2,-2.5 -1.4,-3.4 -1.4,-7.35 0,-3.85 0.2,-4.95 1.4,-7.45 3.7,-8 10.55,-12.25 18.95,-11.65 7.35,0.5 13,4.3 16.05,10.75 1.45,3.05 1.6,3.8 1.6,8.1 0,5.9 -0.95,8.25 -5.2,12.65 -2.95,3.1 -2.95,3.1 -2.3,9.35 0.8,7.3 2.2,17.9 2.5,19 0.1,0.4 0.55,3.7 1,7.25 0.45,3.6 0.9,6.9 1.05,7.4 0.25,0.8 -0.75,0.85 -15.85,0.85 -16.1,0 -16.1,0 -15.8,-1.85 z" />
  </g>
</svg>
